<svg version="1.1" id="Layer_1" xmlns="http://www.w3.org/2000/svg" xmlns:xlink="http://www.w3.org/1999/xlink" x="0px" y="0px"
	 width="100%" viewBox="0 0 720 1024" enable-background="new 0 0 720 1024" xml:space="preserve" style="background-color:white">
<path fill="#000000" opacity="1.000000" stroke="none" 
	d="
M364.468658,1025.000000 
	C361.242310,1021.120605 356.511871,1020.211975 352.759125,1017.940674 
	C341.406403,1011.069641 332.102448,1001.671265 321.573975,993.810669 
	C317.650726,990.881531 313.816742,988.187256 309.079498,986.855225 
	C307.351074,986.369141 305.625763,985.722900 303.844208,983.914429 
	C308.481323,983.135132 312.979187,985.008423 316.914764,983.293213 
	C317.220581,981.897095 316.628174,981.320190 315.998810,980.765808 
	C314.650848,979.578369 312.742065,978.584045 313.778687,976.313904 
	C314.910126,973.836121 317.197723,974.045593 319.399536,974.226135 
	C325.419495,974.719666 329.872559,977.896790 332.360931,983.128723 
	C333.964569,986.500427 335.970886,987.786499 339.537964,988.061951 
	C344.812988,988.469299 352.126648,995.225037 353.453339,1000.347839 
	C354.208008,1003.261902 353.695709,1003.955383 348.136169,1007.526184 
	C347.763855,1009.380127 349.029053,1010.305237 350.364410,1010.972534 
	C357.503143,1014.540283 364.709991,1017.957031 372.393951,1020.238708 
	C375.471039,1021.152466 378.403015,1020.621887 381.062378,1019.077332 
	C385.344666,1016.590149 388.588135,1012.645081 393.379578,1010.723083 
	C395.753632,1009.770874 395.792694,1006.908508 395.104340,1004.501953 
	C393.522888,998.972656 394.263489,993.711121 396.277252,988.385864 
	C398.173157,983.372314 398.327545,977.959717 398.957550,972.673035 
	C399.193542,970.692810 399.469177,968.714294 399.814941,966.750610 
	C401.757629,955.717590 412.120331,955.018127 419.297760,958.404480 
	C426.289185,961.703064 432.242371,966.840332 439.785431,969.526672 
	C446.131287,971.786621 448.905518,978.496826 452.430878,983.911621 
	C455.515839,988.650269 458.265167,993.606018 461.272064,998.397217 
	C464.349731,1003.301270 468.120331,1004.132324 473.165009,1001.242126 
	C475.909210,999.669861 478.742310,998.247925 481.445038,996.609375 
	C485.134125,994.372681 486.569244,995.985840 487.128845,999.620056 
	C487.608093,1002.732605 486.697388,1005.993591 488.130310,1008.988586 
	C488.476807,1009.712830 488.977936,1010.363220 489.412811,1011.055359 
	C492.117310,1010.401978 491.914764,1008.309998 491.756073,1006.633179 
	C490.664368,995.096985 493.778595,983.867065 494.218384,972.412720 
	C494.603516,962.382568 494.001099,952.471985 493.365143,942.553772 
	C492.828491,934.184692 493.754578,925.569031 490.357880,917.508545 
	C489.731049,916.021057 490.550598,914.570679 490.928375,913.133728 
	C491.864227,909.573914 492.248413,906.013245 491.101196,902.214722 
	C487.025940,902.872742 483.153076,903.178467 479.606995,905.397217 
	C476.679474,907.229004 473.296600,907.560669 470.015778,906.000427 
	C466.221985,904.196289 462.280182,902.994324 458.070435,902.784973 
	C453.802765,902.572693 450.912750,899.875793 447.601532,897.592651 
	C442.442108,894.035156 437.011475,891.113831 432.478668,886.469238 
	C425.971954,879.802124 428.168060,872.580811 429.817383,865.408142 
	C431.116119,859.760132 435.748657,857.935120 441.234161,857.558655 
	C450.846436,856.898926 460.434387,855.889282 470.044647,855.193481 
	C474.300629,854.885376 475.543549,852.615173 474.799561,848.833069 
	C474.223053,845.902344 473.535980,842.983765 472.709290,840.114136 
	C471.401611,835.574829 473.153961,832.152527 476.773132,829.786743 
	C480.806091,827.150330 480.429688,825.244934 477.030090,822.167114 
	C473.867554,819.304016 471.330872,815.655457 468.932709,812.075378 
	C467.338684,809.695740 466.509186,806.777161 469.189453,804.353333 
	C473.199890,800.726440 472.231873,796.802124 469.563873,793.189575 
	C460.344055,780.705811 444.385406,775.283081 430.722565,785.453186 
	C416.433746,796.089050 403.728119,794.019958 388.772247,785.467285 
	C383.056396,782.198547 381.278839,775.443359 377.874115,770.224609 
	C372.543854,762.054504 366.339020,754.961609 358.820679,748.708679 
	C349.330078,740.815552 345.252167,729.547302 342.388763,717.989807 
	C341.039886,712.545532 338.997345,707.567993 336.142731,702.843323 
	C335.458008,701.709961 334.573944,700.693604 333.749298,699.648865 
	C331.666901,697.010864 327.266663,697.466431 325.935883,693.828796 
	C324.778595,690.665405 322.843414,687.997009 320.933624,685.455750 
	C319.617767,685.388916 319.267273,686.248474 319.068604,686.989685 
	C313.862793,706.408997 305.258972,724.923950 302.730927,745.014771 
	C301.532440,754.539246 300.159790,763.877563 295.585297,772.314575 
	C291.951782,779.016174 287.704742,785.421570 283.320465,791.671143 
	C276.933807,800.775208 270.406097,809.801025 263.501404,818.513794 
	C258.941132,824.268127 251.982300,827.001892 245.509003,829.896057 
	C241.838608,831.537109 242.491806,827.752441 242.523087,825.604919 
	C242.739883,810.722412 247.011398,796.723328 252.044525,782.921570 
	C253.316208,779.434326 253.812180,775.449036 256.996246,772.889282 
	C263.118530,776.954041 263.191132,776.704712 268.223145,770.894470 
	C273.663391,764.612793 279.982208,759.032837 282.676697,750.801819 
	C283.089691,749.540161 283.646545,748.291321 283.825958,746.993530 
	C284.472748,742.315979 282.439148,740.396729 277.800262,741.274719 
	C275.526154,741.705139 273.287231,742.321655 270.786316,742.912048 
	C270.514526,742.202454 269.975616,741.525024 270.126312,741.082214 
	C273.882874,730.043701 268.323914,719.894470 267.110931,709.344666 
	C266.007294,699.745972 265.076477,690.132202 265.092072,680.479553 
	C265.098114,676.737000 264.549377,672.275818 269.606567,670.483826 
	C270.239136,670.259705 270.715302,668.809326 270.777954,667.893738 
	C271.100952,663.175293 270.330627,658.692627 267.518494,654.449280 
	C263.286804,656.566162 264.692230,660.602417 263.557678,664.100891 
	C261.242279,654.104370 259.607391,644.413818 258.813477,634.599731 
	C258.604706,632.019226 257.953369,629.694336 256.709534,627.500916 
	C251.516693,618.343811 247.522934,608.657593 244.112411,598.728821 
	C234.657394,571.203308 223.902237,544.080444 218.170563,515.394592 
	C217.877060,513.925659 217.403595,512.490417 217.150299,511.016052 
	C216.310303,506.127258 218.342041,504.530304 222.989395,505.914368 
	C228.751663,507.630493 231.108658,511.842407 232.176376,517.239014 
	C234.084076,526.881104 236.425522,536.415955 239.224075,545.839783 
	C240.815155,551.197632 243.062653,556.007507 247.838272,559.461365 
	C251.817947,562.339539 254.550781,566.483398 256.451569,570.950256 
	C258.846039,576.577271 263.415497,580.707581 266.190643,586.026123 
	C267.224426,588.007385 269.789825,587.666687 271.584747,590.108276 
	C266.428833,595.945862 260.938629,602.187317 259.332184,610.169678 
	C257.719635,618.182190 259.009735,626.172119 262.827454,633.946350 
	C265.997467,625.354675 270.569214,618.885498 279.044830,615.524536 
	C282.151123,614.292725 285.442474,612.658203 287.368347,609.442322 
	C288.444183,607.645813 290.212189,606.429199 292.158386,606.053528 
	C296.167572,605.279785 297.031525,600.640747 301.037933,599.474915 
	C303.044830,598.890869 300.151642,595.234436 301.469818,592.772583 
	C303.365356,597.613586 305.892639,597.584961 308.840607,593.826721 
	C309.136292,593.449707 309.547760,593.145630 309.949463,592.872314 
	C316.583649,588.359802 316.667419,588.025024 312.848389,580.957458 
	C310.741150,577.057800 310.534851,576.298218 310.630280,571.524963 
	C313.772552,575.713318 316.533356,579.095276 318.938293,582.713623 
	C320.319183,584.791199 321.509216,585.744690 324.188660,584.936401 
	C335.881744,581.409180 347.930908,579.888062 360.082001,579.094360 
	C371.907043,578.321899 378.767365,581.685486 382.458832,590.008789 
	C381.753571,590.876709 380.903290,590.559875 380.288422,590.046997 
	C370.777924,582.114136 359.708954,582.258118 348.489380,584.237610 
	C329.330872,587.617798 313.045624,596.476685 300.089478,611.072754 
	C295.197937,616.583496 295.387238,617.722229 299.239960,623.762146 
	C307.702820,637.029358 318.919800,648.038147 328.872284,660.083923 
	C338.631470,671.895691 348.244629,683.828613 358.050507,695.601257 
	C364.762146,703.659058 371.848083,711.333374 379.526306,718.556824 
	C390.686249,729.055786 404.823761,731.432617 418.754272,734.473999 
	C424.114258,735.644287 429.429138,733.920715 433.843414,730.565796 
	C438.115967,727.318481 442.890015,725.612366 448.099365,725.066406 
	C452.938873,724.559143 457.578644,723.291504 462.234070,721.999084 
	C467.360840,720.575745 468.256653,721.470154 467.255676,726.695862 
	C466.983582,728.116272 466.213074,729.536865 467.066559,731.336914 
	C471.154175,731.439941 473.217346,729.490784 473.812958,725.358826 
	C475.410370,714.276794 473.240753,716.526917 484.368256,714.995728 
	C496.094727,713.382080 507.595245,710.651489 519.250671,708.727417 
	C526.420898,707.543884 526.643555,707.645020 528.157837,714.895386 
	C534.480896,745.170288 541.220825,775.354431 547.464722,805.649048 
	C556.190308,847.984192 564.383301,890.437439 574.216064,932.538940 
	C575.727112,939.008850 577.890869,945.326355 579.752747,951.714355 
	C582.073242,959.675903 581.901367,960.243774 574.769958,964.532471 
	C558.478516,974.330017 541.661682,983.125610 524.071838,990.355225 
	C520.622925,991.772766 519.102173,993.048340 520.024963,997.240112 
	C521.960693,1006.032959 522.650024,1015.027039 522.029480,1024.532593 
	C469.645782,1025.000000 417.291534,1025.000000 364.468658,1025.000000 
M503.960907,855.693359 
	C507.303589,855.042664 506.046387,852.286621 506.003387,850.504150 
	C505.802887,842.199280 505.647888,833.866150 504.803589,825.611938 
	C504.008759,817.841492 503.435364,809.866211 498.581482,803.137207 
	C497.959534,802.274963 497.457428,801.325195 496.303284,801.774841 
	C494.777740,802.369263 495.084045,803.631592 495.739960,804.675171 
	C499.054535,809.948975 499.622955,815.406982 497.359863,821.266235 
	C496.578308,823.289734 496.698364,825.599243 497.469208,827.661804 
	C499.691956,833.609314 500.505676,839.806152 501.248047,846.060181 
	C501.616821,849.166748 502.715424,852.186646 503.960907,855.693359 
M492.921570,824.980469 
	C492.449158,824.156494 492.456665,823.023376 491.213989,822.498291 
	C482.996399,838.283875 489.149536,853.627258 491.947632,869.937805 
	C495.351349,867.099243 496.143097,864.497864 496.049164,861.027039 
	C495.728058,849.162720 492.472076,837.551147 492.921570,824.980469 
M505.043945,789.245300 
	C505.161896,791.860168 505.279877,794.475037 505.392181,796.964661 
	C511.607666,797.864136 512.329468,794.106934 512.172485,789.229553 
	C512.066101,785.925903 512.710083,782.603638 512.713623,779.289307 
	C512.716797,776.313293 512.524170,773.261108 510.836426,770.643860 
	C510.025024,769.385559 508.907104,768.205139 507.175262,768.546326 
	C505.333557,768.909241 505.168762,770.499817 504.940521,772.014343 
	C504.117493,777.475037 504.380005,782.927795 505.043945,789.245300 
M282.235077,643.732422 
	C281.149780,645.850830 280.757324,648.201843 283.003174,649.522827 
	C287.619598,652.238281 292.654144,653.085632 298.717438,652.184143 
	C296.430328,648.451660 294.736511,645.542358 292.016846,643.586121 
	C289.112457,641.497070 285.928833,639.821899 282.235077,643.732422 
z"/>
<path fill="#000000" opacity="1.000000" stroke="none" 
	d="
M236.458069,1025.000000 
	C236.257217,1024.042847 236.696030,1023.094543 236.743011,1022.127136 
	C237.135101,1014.055176 240.826843,1008.471252 249.067871,1006.010986 
	C250.982788,1009.057007 249.784943,1012.194824 248.652023,1015.202209 
	C247.530167,1018.180176 246.551971,1021.127136 246.912415,1024.678345 
	C243.638718,1025.000000 240.277420,1025.000000 236.458069,1025.000000 
z"/>
<path fill="#000000" opacity="1.000000" stroke="none" 
	d="
M441.309326,427.530548 
	C440.822113,429.799805 440.934631,431.871765 439.045654,434.176819 
	C438.130646,424.043488 433.397430,416.145142 429.016479,407.410126 
	C425.250549,410.677826 421.949982,410.608002 418.316772,409.023163 
	C415.646851,407.858521 415.460266,408.180328 414.088196,411.933838 
	C412.548309,412.889130 409.920654,410.216614 408.718842,413.497620 
	C408.199036,414.916809 406.257812,414.091766 405.106842,413.588287 
	C397.870697,410.422821 392.944946,413.934174 388.703522,419.233093 
	C385.780670,422.884705 382.878601,426.496185 378.920593,429.138306 
	C375.655090,431.318085 372.915833,431.403107 370.225464,428.128296 
	C365.329437,422.168640 359.563568,416.909546 355.274689,410.465515 
	C355.625519,410.118896 355.976349,409.772247 356.327209,409.425598 
	C360.135590,413.123230 364.020844,416.745453 367.736755,420.533783 
	C376.041809,429.000549 376.701477,428.918213 383.811066,419.590057 
	C389.078156,412.679352 393.616943,405.327209 398.049042,397.877350 
	C400.155914,394.335907 399.828125,391.850464 396.274567,389.512848 
	C391.695953,386.500854 387.299896,385.028778 381.394409,385.659088 
	C366.666199,387.231049 353.810272,382.007172 343.739258,371.205383 
	C338.254944,365.323120 332.032440,364.101074 324.729187,365.383392 
	C322.909454,365.702911 321.131989,366.010437 319.285522,365.625519 
	C317.467865,365.246613 315.384064,364.798309 314.296570,366.708588 
	C312.957520,369.060760 315.207336,370.414032 316.531403,371.677032 
	C323.881622,378.688232 331.362579,385.562164 338.777222,392.506134 
	C340.190735,393.829895 342.091766,394.784180 342.562775,397.309692 
	C340.091553,398.359985 338.459076,396.763702 336.925781,395.502228 
	C327.417694,387.679626 318.121429,379.613983 309.264069,371.051117 
	C305.620270,367.528473 301.826660,366.153534 296.660583,368.633118 
	C289.863678,371.895538 281.861664,371.656616 274.923798,375.456085 
	C277.839325,369.503448 281.301178,364.230560 286.137115,359.970306 
	C287.631256,358.654022 289.315399,357.555756 290.845764,356.277740 
	C293.513458,354.049866 295.822571,351.721161 293.331665,347.879425 
	C292.671722,346.861633 293.031158,345.566711 293.561249,344.502838 
	C297.990326,335.614349 300.006104,326.013611 301.822327,316.367249 
	C302.433807,313.119568 304.749573,312.206024 307.440735,311.539734 
	C311.013062,310.655243 312.679077,309.015930 310.426361,305.199554 
	C308.578613,302.069183 309.244843,298.340149 308.989777,294.929047 
	C308.281738,285.460388 306.591949,276.231750 304.030762,267.111145 
	C303.540649,265.365723 302.805664,262.799286 305.834717,262.337219 
	C308.223633,261.972809 308.946014,263.908234 309.199951,265.821899 
	C309.947357,271.454224 311.497803,276.894592 313.029480,282.338379 
	C315.053894,289.533295 314.911682,296.791901 313.941498,304.113983 
	C313.447113,307.845398 312.875702,311.245728 317.004974,314.142914 
	C319.388824,315.815460 320.823151,319.667969 321.462341,322.789612 
	C322.246124,326.617523 324.309265,329.024231 327.160828,331.170593 
	C342.855194,342.983826 358.606415,354.722870 374.206116,366.659851 
	C379.490234,370.703339 384.362823,375.281647 389.470367,379.559540 
	C396.006958,385.034454 402.369202,390.641632 411.090363,392.768768 
	C414.825256,393.679718 418.183502,396.134979 422.348389,398.204285 
	C416.071411,390.147552 409.242493,383.282440 408.949463,372.759552 
	C408.606964,360.459747 412.494141,348.880981 413.593414,336.589539 
	C417.328796,337.257965 418.999573,339.636139 421.149323,341.359863 
	C432.360168,350.349121 442.433197,360.539185 452.304291,370.923523 
	C455.212128,373.982513 458.283783,375.234375 462.470459,374.843018 
	C470.315735,374.109802 478.149902,375.409088 485.855560,376.395477 
	C492.149780,377.201172 496.702179,382.452118 501.913879,385.992615 
	C510.883301,392.085846 516.989075,400.930023 523.912598,408.779022 
	C532.148315,418.115723 538.538513,429.133881 545.260803,439.720398 
	C547.363708,443.032104 548.761719,446.830353 551.192383,450.043762 
	C553.212891,452.714905 555.025024,455.751831 555.427368,459.016541 
	C556.457886,467.376953 561.096680,473.590118 566.201965,479.814941 
	C570.448669,484.992950 573.126099,491.172699 575.229370,497.546478 
	C576.558838,501.575470 577.390442,505.652222 581.260254,508.560181 
	C583.737732,510.421906 583.702637,513.125183 579.804932,514.454651 
	C577.810608,515.134949 576.012146,516.512878 574.264404,517.769226 
	C569.010010,521.546204 563.779053,525.158081 557.721924,527.807739 
	C552.513306,530.086243 547.680725,533.696472 544.756104,539.102051 
	C542.793274,542.729858 538.377930,542.526306 535.305847,544.673645 
	C529.665344,548.616272 527.754272,554.547852 524.786743,559.920959 
	C523.277527,562.653564 525.545898,565.059326 527.565796,566.807190 
	C530.327759,569.197266 533.258789,571.845703 537.355652,569.711365 
	C539.411255,568.640442 541.406555,567.363892 543.205200,565.904236 
	C555.860291,555.634705 567.770874,544.460510 581.017944,534.901611 
	C582.722839,533.671326 583.889893,531.692444 585.294800,530.050659 
	C586.790283,528.302979 588.161438,526.369263 591.208496,526.410034 
	C590.904785,532.131592 588.515015,536.490967 584.336121,540.172302 
	C572.963013,550.191467 561.306763,559.899109 550.762146,570.836304 
	C544.646667,577.179382 544.461792,577.163879 550.853760,583.184631 
	C555.463745,587.526978 560.097046,591.778687 563.685181,597.088623 
	C566.037598,600.569946 569.191589,602.432434 573.453369,599.794556 
	C574.139954,599.369690 575.012329,599.193054 575.824707,599.034363 
	C577.386780,598.729126 579.201965,597.672241 580.325867,599.631775 
	C581.314575,601.355530 580.073303,602.786682 579.182190,604.188904 
	C576.263123,608.782593 571.666931,611.779785 567.681885,615.147339 
	C561.230835,620.598694 555.317871,626.797729 547.832886,631.034058 
	C543.380310,633.554138 540.926758,637.838928 538.215454,642.173584 
	C531.095215,653.557190 525.279724,665.818726 516.303528,676.000366 
	C514.962585,677.521423 513.546814,678.934326 511.196564,678.421448 
	C509.512756,676.542603 510.948761,674.950867 511.723022,673.429199 
	C514.063232,668.829834 516.101685,663.997070 519.028503,659.791687 
	C526.550354,648.983765 532.387878,637.154236 539.817383,626.307068 
	C540.380432,625.484924 540.983826,624.682617 541.638611,623.932312 
	C545.868103,619.086365 546.938293,619.019104 551.527832,623.392944 
	C554.222046,621.576111 556.787476,619.507874 559.859070,618.131470 
	C562.182983,617.090027 562.845032,614.470459 563.935425,612.167175 
	C567.683838,604.248962 562.629333,598.972595 558.179199,594.329407 
	C552.243958,588.136780 547.134705,580.217346 537.177063,579.452393 
	C536.410278,579.393494 535.671448,578.775940 534.948853,578.366516 
	C523.505371,571.882507 521.842896,572.065308 512.800964,581.068481 
	C511.927826,578.821655 514.519714,577.859253 514.346130,576.232361 
	C514.142151,574.321167 513.125977,572.884277 510.885162,572.191956 
	C508.816895,576.795105 507.876617,581.649109 506.580048,586.303833 
	C507.642670,587.260498 508.087982,585.637756 509.166718,586.163025 
	C509.177948,589.968689 507.878052,592.959534 504.127625,594.784607 
	C495.765717,598.853699 489.664185,605.941406 482.305359,611.362366 
	C472.502960,618.583496 461.872894,622.925354 449.441589,622.386780 
	C441.307098,622.034363 433.149994,621.844849 425.350769,625.159973 
	C422.084351,626.548340 421.403656,623.713196 420.145050,621.417603 
	C413.284149,608.904114 409.672333,594.733398 400.954224,583.203796 
	C393.291992,573.070557 384.058594,564.564941 373.455322,557.637573 
	C370.882751,559.713562 371.179626,562.958252 368.534088,564.939392 
	C361.434937,557.027100 352.038544,558.772949 342.898193,559.210876 
	C340.854614,559.308838 338.952911,558.715881 336.919586,557.383667 
	C336.966125,555.169678 337.563721,552.866089 334.519470,551.094482 
	C331.870209,549.552673 333.841156,547.333435 335.977661,546.225403 
	C341.142120,543.547058 346.367889,543.243591 351.872681,545.484619 
	C358.000916,547.979431 358.828705,547.611633 361.136688,541.513977 
	C363.135010,536.234497 364.955078,530.902527 367.149170,525.681763 
	C370.235718,518.337341 368.339966,510.749207 366.295044,503.611389 
	C358.536255,476.529663 345.164917,452.291138 327.957855,430.082489 
	C325.880981,427.401917 322.631409,425.610687 321.373169,421.723419 
	C324.263000,421.385834 325.623810,423.214630 327.101410,424.603394 
	C336.841431,433.757935 343.252167,445.308502 349.840515,456.685364 
	C362.380554,478.339874 371.183258,501.412354 375.893433,526.048340 
	C377.626495,535.112671 381.429688,538.350220 390.680389,536.589478 
	C404.029510,534.048584 413.996368,540.500366 424.760925,546.318237 
	C434.625763,551.649841 441.929596,559.092468 447.979919,568.221252 
	C449.028290,569.803101 450.923981,570.891785 452.571625,571.994019 
	C456.275787,574.472046 459.044739,577.418518 460.376007,581.940552 
	C461.739929,586.573364 465.005920,589.804565 469.995911,590.967285 
	C470.795074,589.017090 468.340363,587.833008 469.610992,585.672852 
	C472.252960,587.078369 473.149445,589.748169 474.410858,592.086731 
	C475.575500,594.245850 476.981903,596.126526 479.739258,595.874634 
	C482.288269,595.641846 483.917175,593.958130 485.039948,591.788696 
	C487.432831,587.164795 487.209198,582.504883 485.226410,577.794800 
	C484.390320,575.808594 483.485291,573.792603 483.082764,571.699524 
	C482.690125,569.657959 482.045197,567.071716 484.305267,565.768799 
	C486.533295,564.484375 488.445465,566.201660 490.094879,567.579285 
	C493.289276,570.247375 495.679749,573.650513 498.029175,577.021912 
	C509.491608,569.342041 514.409546,557.718994 517.403442,545.391052 
	C521.260803,529.507812 522.790405,513.226868 522.929138,496.858459 
	C522.961365,493.062775 523.414551,489.206177 521.574463,485.576538 
	C520.751587,483.953491 521.419312,482.265045 522.411987,480.864288 
	C524.892639,477.363892 525.301331,473.382294 524.769958,469.373169 
	C523.568665,460.310608 520.803650,451.821442 514.335815,444.998505 
	C510.327454,440.770111 505.626129,439.252838 499.834747,441.178497 
	C491.570038,443.926544 488.383698,442.047089 486.481445,433.433594 
	C485.657196,429.701538 485.430573,425.840210 484.672363,422.090210 
	C483.426117,415.926422 480.629425,415.187744 475.767426,419.003082 
	C473.339203,420.908630 471.123016,423.158173 468.034454,424.359406 
	C464.472687,425.744690 462.409515,428.927917 461.088531,432.472534 
	C459.904236,435.650299 457.639526,437.513397 454.715790,438.618195 
	C452.494415,436.702515 453.585785,434.969940 454.163330,433.300842 
	C455.741852,428.738708 457.330750,424.179657 458.977692,419.641968 
	C459.967224,416.915710 459.124695,414.593719 457.137207,412.874847 
	C455.024170,411.047363 453.036072,412.697327 451.263641,413.871826 
	C446.386841,417.103485 442.327484,420.988373 441.309326,427.530548 
M427.257721,386.212708 
	C439.713257,394.507935 453.251312,400.104889 468.073364,402.401337 
	C471.882385,402.991516 474.283600,400.447479 476.214966,397.734528 
	C477.486053,395.949036 476.655151,394.215637 474.693207,393.219330 
	C462.613892,387.085266 454.107605,376.669312 444.399780,367.731354 
	C438.752472,362.531860 432.729553,357.882996 426.528534,353.431763 
	C425.179413,352.463318 423.649078,350.504639 421.713562,351.891693 
	C419.912140,353.182678 420.156708,355.445892 420.333466,357.440063 
	C420.481567,359.110962 420.820923,360.828888 422.373322,361.800995 
	C426.684296,364.500458 424.283691,366.351776 421.972229,368.332611 
	C418.213531,366.895294 419.373657,361.912903 415.699402,360.444458 
	C416.371307,365.694000 418.470886,369.840302 422.734467,372.699890 
	C419.548889,376.044769 419.024872,379.216431 421.852234,382.272156 
	C423.176483,383.703369 425.054474,384.622223 427.257721,386.212708 
M410.692505,397.406921 
	C408.322815,397.773987 406.166931,398.966919 406.987183,401.497223 
	C407.813477,404.046204 410.373383,404.209106 413.789307,403.120789 
	C411.220245,401.665985 412.323181,399.295441 410.692505,397.406921 
z"/>
<path fill="#000000" opacity="1.000000" stroke="none" 
	d="
M429.480652,194.356018 
	C425.453735,195.878403 422.736847,199.242432 418.752991,199.969223 
	C415.855103,193.932983 421.089508,181.206848 427.570007,179.154068 
	C434.957703,176.813919 442.130585,173.738358 451.231812,174.483704 
	C448.521210,166.668930 449.122803,158.379745 441.751190,152.811081 
	C442.788940,145.620178 440.461823,142.596405 432.215851,141.022659 
	C428.705322,140.352707 426.118500,139.019043 425.773224,134.732101 
	C425.469025,130.955109 418.904907,127.667175 414.611786,129.529373 
	C402.256622,134.888550 388.840027,137.588226 377.110382,144.422806 
	C372.860992,146.898834 370.075165,150.755539 367.980133,155.323318 
	C364.724945,162.420425 357.105957,164.124817 352.090729,159.326736 
	C350.390686,157.700317 349.794403,155.761383 349.726685,153.503647 
	C349.675079,151.782455 350.132690,149.717133 346.748901,148.974426 
	C347.070343,153.357254 346.952087,157.561707 347.786224,161.567871 
	C348.718903,166.047409 347.459320,168.883789 343.562347,171.097794 
	C338.367767,174.049026 333.330536,177.278885 328.247864,180.424881 
	C324.521698,182.731247 323.997437,186.970901 323.518158,190.489120 
	C321.771637,203.309494 319.051361,216.051117 319.371857,229.101028 
	C319.495880,234.149872 316.932495,236.252060 312.257599,234.695618 
	C312.572083,244.028427 318.472626,252.065414 318.703156,261.440491 
	C315.646423,261.685883 314.582123,260.399109 314.543060,258.283264 
	C314.432892,252.317169 312.705902,247.716965 306.315063,245.580521 
	C303.802155,244.740463 301.712738,242.327469 302.523773,238.714142 
	C306.161163,238.041901 307.857971,241.008942 311.208282,243.193802 
	C309.649872,238.942245 308.448425,235.664642 307.321716,232.590836 
	C304.769989,232.524979 304.338531,234.865921 301.690674,235.292068 
	C302.295898,231.152695 295.733551,230.356613 297.738007,224.800247 
	C298.655548,222.256790 291.765259,216.977310 287.607697,216.566345 
	C284.986786,216.307251 282.847382,215.506866 281.346558,213.313049 
	C284.818817,209.146591 287.824341,209.282623 292.929657,212.837204 
	C296.390686,215.246979 298.186615,219.666397 302.573975,221.020248 
	C303.877106,218.810608 302.484985,217.611099 301.441223,216.383408 
	C297.843292,212.151413 293.821350,208.412231 288.384979,206.723145 
	C285.844666,205.933899 285.087006,204.240891 284.920654,201.888031 
	C284.182526,191.446350 282.630280,181.056122 281.703674,170.685776 
	C280.276703,154.715286 281.545410,138.550812 289.544525,123.892365 
	C299.468567,105.706482 314.138275,93.099800 334.034027,86.927811 
	C342.106995,84.423447 349.467682,79.241982 358.175140,79.312874 
	C367.173187,79.386147 375.545166,74.670494 384.735901,76.461006 
	C387.179047,76.936974 389.996796,76.877045 391.920319,78.198730 
	C398.451599,82.686394 407.173859,81.320259 413.386383,86.603378 
	C414.476257,87.530228 416.564331,87.595161 418.174438,87.542206 
	C423.898407,87.353981 427.914398,91.063194 432.420715,93.597557 
	C433.696075,94.314835 433.313873,95.970261 433.100433,97.301994 
	C432.056976,103.812920 433.044312,105.732300 438.892303,108.837669 
	C442.173187,110.579880 445.307220,112.764473 447.142731,115.938957 
	C451.868896,124.112953 456.674866,132.282043 459.494904,141.402664 
	C460.105988,143.379044 460.193146,145.278152 459.748749,147.292999 
	C457.943237,155.478760 457.989990,163.751816 458.241364,172.095566 
	C458.416840,177.919556 457.580231,183.774033 457.096558,191.121033 
	C450.580414,183.799393 444.424835,186.570618 437.881012,188.497543 
	C439.143646,190.582626 440.715515,190.622055 442.147583,190.671631 
	C449.075378,190.911514 452.625519,194.856018 454.167694,201.236618 
	C454.667847,203.305832 455.062317,205.567749 452.771881,206.319870 
	C450.627167,207.024124 448.501007,206.052002 447.685669,203.507477 
	C446.678711,200.364990 444.387024,198.662506 441.434570,197.773911 
	C440.004272,198.438080 440.734772,199.554565 440.669037,200.451904 
	C440.438232,203.603317 439.009064,206.040161 435.859100,206.668182 
	C432.756805,207.286713 430.297607,205.695267 428.917877,202.922928 
	C428.006836,201.092316 427.674438,198.879593 423.972504,201.098801 
	C429.380890,193.685150 436.969757,195.572021 443.790710,193.420074 
	C438.511505,191.018997 434.151306,192.294479 429.480652,194.356018 
z"/>
<path fill="#000000" opacity="1.000000" stroke="none" 
	d="
M339.386658,290.559753 
	C349.232483,296.218903 358.534790,302.046356 367.593506,308.267090 
	C371.247650,310.776428 375.548859,311.695312 379.765808,312.549957 
	C392.672974,315.165863 405.250305,320.389465 419.178711,318.103455 
	C417.147583,319.893555 415.126556,321.695282 413.081085,323.468842 
	C412.092072,324.326385 411.177277,324.471344 409.999451,323.528229 
	C406.584137,320.793579 405.325256,323.281372 404.445404,326.084137 
	C403.902069,327.814972 403.876831,329.723328 403.235443,331.405731 
	C401.211731,336.713959 397.563416,338.797974 392.276093,337.018066 
	C380.509674,333.057159 368.801819,329.417633 359.293915,320.294617 
	C350.958344,312.296478 340.970886,306.024292 331.746368,298.946320 
	C327.561859,295.735565 325.185760,291.720917 326.178986,285.877930 
	C331.003235,286.826202 335.426422,287.427948 339.386658,290.559753 
z"/>
<path fill="#000000" opacity="1.000000" stroke="none" 
	d="
M356.798889,193.987991 
	C358.149780,194.198013 360.161987,191.097015 360.337067,194.892929 
	C360.399017,196.235748 361.935974,195.336472 362.799164,195.200256 
	C366.733582,194.579361 370.643677,193.756531 374.650513,193.966156 
	C375.087830,191.126312 375.087830,191.126312 379.071442,189.811279 
	C378.696106,187.653702 376.799988,187.628677 375.319031,187.308777 
	C366.198730,185.338745 357.200836,185.511169 348.417603,189.053024 
	C346.574921,189.796082 344.671112,190.413086 342.754639,190.939377 
	C341.316193,191.334366 339.601166,191.721054 338.805267,189.982788 
	C337.980042,188.180496 339.567963,187.341080 340.753937,186.441971 
	C352.790161,177.317230 365.714264,172.525162 381.059753,177.068222 
	C386.487488,178.675125 392.601166,177.636215 396.930908,182.830872 
	C400.701935,187.355179 401.860809,192.511383 402.001343,198.010452 
	C402.078705,201.037674 399.712250,201.353607 397.347198,200.611603 
	C394.324829,199.663376 391.364868,198.506012 387.979431,199.343399 
	C386.792542,200.574341 389.528839,201.461517 388.182404,203.020996 
	C382.961548,203.147797 379.995361,196.326630 373.968842,197.713959 
	C373.394653,199.535889 373.099670,201.553528 372.165009,203.210251 
	C370.276215,206.558197 366.231689,207.241333 363.132660,205.025162 
	C358.427124,201.660172 357.255890,202.156342 356.384125,207.953720 
	C353.050171,208.533417 351.101288,206.544464 350.660248,203.797455 
	C349.925354,199.219940 351.779358,195.682938 356.798889,193.987991 
z"/>
<path fill="#000000" opacity="1.000000" stroke="none" 
	d="
M394.854126,243.544846 
	C391.477020,241.316177 390.109131,238.600403 390.870728,235.008530 
	C392.662415,234.256836 393.158478,235.560593 393.760590,236.451065 
	C395.546844,239.092880 397.721497,240.141998 401.000458,239.194687 
	C405.753571,237.821442 410.206024,238.454544 413.930603,242.126602 
	C417.462585,245.608765 420.802917,245.611237 424.013245,241.549438 
	C425.003784,240.296234 426.282471,238.844589 428.210236,239.559998 
	C429.407745,240.004379 429.763397,241.339539 429.737274,242.497925 
	C429.692719,244.472549 428.225372,245.511978 426.542114,245.816223 
	C424.337463,246.214767 422.552490,247.218567 420.731293,248.433594 
	C418.491455,249.927902 415.228363,250.176086 413.580688,248.796249 
	C408.094940,244.202255 401.183075,245.840530 394.854126,243.544846 
z"/>
<path fill="#000000" opacity="1.000000" stroke="none" 
	d="
M286.233978,577.259094 
	C290.355103,572.686951 295.287384,569.822449 300.579956,567.854492 
	C304.438354,566.419739 306.288513,564.557251 305.859100,560.276306 
	C305.662903,558.319946 305.166412,555.923279 307.025604,554.181641 
	C313.330322,559.188965 313.125397,565.861816 306.649017,569.729797 
	C297.533875,575.173828 288.449036,580.668640 279.340759,586.124207 
	C278.408539,586.682617 277.586121,587.717346 276.017609,587.001221 
	C278.364838,582.719727 283.265961,581.226379 286.233978,577.259094 
z"/>
<path fill="#000000" opacity="1.000000" stroke="none" 
	d="
M402.290405,263.204041 
	C404.953217,264.450134 404.857300,265.736298 402.536560,266.537964 
	C400.859833,267.117157 398.988983,267.134247 397.454407,267.364532 
	C395.789429,268.970795 398.378876,269.770020 397.699280,271.199127 
	C397.312592,271.256500 396.806885,271.483154 396.403656,271.363800 
	C395.029755,270.957031 393.900299,270.062836 392.200195,270.802002 
	C386.930115,273.093323 382.278717,269.878998 377.438751,268.693848 
	C375.593567,268.242065 375.922913,266.436005 376.588531,264.942261 
	C379.069824,259.373749 386.739960,258.035614 391.069794,262.294342 
	C394.367004,265.537354 398.290619,262.972900 402.290405,263.204041 
z"/>
<path fill="#000000" opacity="1.000000" stroke="none" 
	d="
M348.916443,501.670837 
	C346.558380,482.273285 340.745514,464.400391 330.660431,446.929291 
	C334.032104,447.561890 335.299866,449.292419 336.323334,451.002045 
	C346.170990,467.452240 349.907166,485.820923 352.886261,504.410309 
	C352.969788,504.931610 352.496460,505.542114 352.272583,506.138306 
	C349.582703,505.791901 349.790161,503.548553 348.916443,501.670837 
z"/>
<path fill="#000000" opacity="1.000000" stroke="none" 
	d="
M330.658966,894.180725 
	C328.035156,892.732117 325.667328,891.540955 323.384796,890.204224 
	C321.803528,889.278076 320.130188,888.159180 320.483887,886.001648 
	C320.840424,883.827087 322.527679,882.647278 324.518677,882.048584 
	C330.028809,880.391602 337.779633,886.924683 336.669220,892.510498 
	C336.007019,895.841736 333.580475,895.943115 330.658966,894.180725 
z"/>
<path fill="#000000" opacity="1.000000" stroke="none" 
	d="
M444.988770,464.932678 
	C447.245056,465.771240 447.043274,467.625031 447.211517,469.199585 
	C447.925812,475.884308 448.458862,482.578064 446.669067,489.276184 
	C444.990234,481.235107 440.438232,473.488464 444.988770,464.932678 
z"/>
<path fill="#000000" opacity="1.000000" stroke="none" 
	d="
M315.797302,548.818848 
	C312.063568,545.718140 307.924194,543.463013 305.891968,538.945801 
	C310.653564,540.312134 314.881744,542.523193 317.714386,546.756592 
	C318.826813,548.419128 318.685852,549.758484 315.797302,548.818848 
z"/>
<path fill="#000000" opacity="1.000000" stroke="none" 
	d="
M431.847107,270.813385 
	C428.249390,272.157288 425.039062,275.074799 420.431671,271.201385 
	C424.515350,270.866241 426.226562,267.874756 429.180450,266.992035 
	C430.247925,266.673035 431.491913,266.159668 432.455170,267.097778 
	C433.678986,268.289734 432.999939,269.479340 431.847107,270.813385 
z"/>
<path fill="#000000" opacity="1.000000" stroke="none" 
	d="
M407.399628,285.925018 
	C408.753021,286.206207 409.733917,286.412231 410.303345,288.219086 
	C405.848175,289.977509 402.016571,288.492157 398.208954,286.425537 
	C401.119843,285.036194 404.093658,286.012329 407.399628,285.925018 
z"/>
<path fill="#000000" opacity="1.000000" stroke="none" 
	d="
M290.354462,243.618469 
	C291.240204,244.928406 292.620941,245.615067 292.284332,247.195389 
	C287.773804,246.662582 286.408264,244.732834 286.759705,239.332016 
	C288.771057,239.964737 288.841522,242.189392 290.354462,243.618469 
z"/>
<path fill="#000000" opacity="1.000000" stroke="none" 
	d="
M441.933990,443.298065 
	C441.845612,444.720947 442.262817,445.984985 440.716003,446.868622 
	C439.241028,445.184998 438.595734,443.417938 439.474274,441.282410 
	C441.402863,440.531769 441.495819,441.946075 441.933990,443.298065 
z"/>
</svg>